<?xml version="1.0" encoding="utf-8"?>
<!-- Generator: Adobe Illustrator 23.0.0, SVG Export Plug-In . SVG Version: 6.00 Build 0)  -->
<svg version="1.1" id="Layer_1" xmlns="http://www.w3.org/2000/svg" xmlns:xlink="http://www.w3.org/1999/xlink" x="0px" y="0px"
	 viewBox="0 0 2011 634" style="enable-background:new 0 0 2011 634;" xml:space="preserve">
<style type="text/css">
	.st0{fill:url(#SVGID_1_);}
	.st1{filter:url(#Adobe_OpacityMaskFilter);}
	.st2{fill-rule:evenodd;clip-rule:evenodd;fill:#FFFFFF;}
	.st3{mask:url(#mask-3_1_);}
	.st4{filter:url(#filter-5);}
	.st5{fill:#2D2DB0;}
	.st6{fill-rule:evenodd;clip-rule:evenodd;fill:#D7D7FF;}
	.st7{fill-rule:evenodd;clip-rule:evenodd;fill:#71CEFC;}
	.st8{fill-rule:evenodd;clip-rule:evenodd;fill:#92CDFA;}
	.st9{fill-rule:evenodd;clip-rule:evenodd;fill:#C7EBFF;}
	.st10{fill-rule:evenodd;clip-rule:evenodd;fill:#8181F5;}
	.st11{filter:url(#Adobe_OpacityMaskFilter_1_);}
	.st12{mask:url(#mask-7_1_);fill-rule:evenodd;clip-rule:evenodd;fill:#5F5FF6;}
	.st13{fill-rule:evenodd;clip-rule:evenodd;fill:#00B3FF;}
	.st14{fill-rule:evenodd;clip-rule:evenodd;fill:#3636CC;}
	.st15{filter:url(#Adobe_OpacityMaskFilter_2_);}
	.st16{mask:url(#mask-9_1_);fill-rule:evenodd;clip-rule:evenodd;fill:#4949E7;}
	.st17{fill-rule:evenodd;clip-rule:evenodd;fill:#8080F1;}
	.st18{fill-rule:evenodd;clip-rule:evenodd;fill:#5F5FF6;}
	.st19{fill-rule:evenodd;clip-rule:evenodd;fill:#4949E7;}
	.st20{fill-rule:evenodd;clip-rule:evenodd;fill:#69E781;}
	.st21{filter:url(#Adobe_OpacityMaskFilter_3_);}
	.st22{mask:url(#mask-11_1_);fill-rule:evenodd;clip-rule:evenodd;fill:#4AD295;}
	.st23{fill-rule:evenodd;clip-rule:evenodd;fill:#2BC48A;}
	.st24{fill-rule:evenodd;clip-rule:evenodd;fill:#8DF690;}
	.st25{fill-rule:evenodd;clip-rule:evenodd;fill:#00AF80;}
	.st26{fill-rule:evenodd;clip-rule:evenodd;fill:#ABFFAD;}
	.st27{fill-rule:evenodd;clip-rule:evenodd;fill:#FCA120;}
	.st28{filter:url(#Adobe_OpacityMaskFilter_4_);}
	.st29{mask:url(#mask-13_1_);fill-rule:evenodd;clip-rule:evenodd;fill:#EB7D16;}
	.st30{fill-rule:evenodd;clip-rule:evenodd;fill:#EB7D16;}
	.st31{fill-rule:evenodd;clip-rule:evenodd;fill:#FFEEB5;}
	.st32{fill-rule:evenodd;clip-rule:evenodd;fill:#FFD341;}
	.st33{filter:url(#Adobe_OpacityMaskFilter_5_);}
	.st34{mask:url(#mask-15_1_);fill-rule:evenodd;clip-rule:evenodd;fill:#FFD341;}
	.st35{fill-rule:evenodd;clip-rule:evenodd;fill:#FFB300;}
</style>
<filter  filterUnits="objectBoundingBox" height="140.2%" id="filter-5" width="114.1%" x="-7.1%" y="-20.1%">
	<feOffset  dx="0" dy="0" in="SourceAlpha" result="shadowOffsetOuter1"></feOffset>
	<feGaussianBlur  in="shadowOffsetOuter1" result="shadowBlurOuter1" stdDeviation="50"></feGaussianBlur>
	<feColorMatrix  in="shadowBlurOuter1" type="matrix" values="0 0 0 0 0   0 0 0 0 0   0 0 0 0 0  0 0 0 0.3 0"></feColorMatrix>
</filter>
<title>Freepik-PP-PCumple</title>
<desc>Created with Sketch.</desc>
<g id="Path-2">
	
		<linearGradient id="SVGID_1_" gradientUnits="userSpaceOnUse" x1="-17.5476" y1="917.1633" x2="-17.9822" y2="917.0129" gradientTransform="matrix(2011 0 0 -646 36180 592679.875)">
		<stop  offset="0" style="stop-color:#2D2DB0"/>
		<stop  offset="1" style="stop-color:#113255"/>
	</linearGradient>
	<path class="st0" d="M1882.5,384.7c-113,85.8-199-70.9-443.4-39.9C1213,373.5,1209.8,517.2,1042,511.5
		c-167.8-5.7-365.5-175.8-589.7-87.9C365.3,457.7,330,496.5,283,545S135.7,647.6,74.5,519.5C33.7,434.1,8.8,245.2,0-47.1h2011
		C2000.7,183.5,1957.8,327.5,1882.5,384.7z"/>
</g>
<defs>
	<filter id="Adobe_OpacityMaskFilter" filterUnits="userSpaceOnUse" x="-137.9" y="-264.3" width="2425" height="1045">
		<feColorMatrix  type="matrix" values="1 0 0 0 0  0 1 0 0 0  0 0 1 0 0  0 0 0 1 0"/>
	</filter>
</defs>
<mask maskUnits="userSpaceOnUse" x="-137.9" y="-264.3" width="2425" height="1045" id="mask-3_1_">
	<g class="st1">
		<path id="path-2_1_" class="st2" d="M1882.5,384.7c-113,85.8-199-70.9-443.4-39.9C1213,373.5,1209.8,517.2,1042,511.5
			c-167.8-5.7-365.5-175.8-589.7-87.9C365.3,457.7,330,496.5,283,545S135.7,647.6,74.5,519.5C33.7,434.1,8.8,245.2,0-47.1h2011
			C2000.7,183.5,1957.8,327.5,1882.5,384.7z"/>
	</g>
</mask>
<g id="Path-7" class="st3">
	<g class="st4">
		<path id="path-4_1_" d="M284.5,467c24.5-35,97-157.5,291-168.2C757.2,288.8,872,475,1090,467c89.7-3.3,143.9-160.8,314.5-188.5
			C1568.7,251.9,1486,96.4,1598-4.7c93.3-84.2,418.9-143.7,523-88.3c23.4,12.4,23.4,115.4,0,309c-228,243.8-342,365.7-342,365.7
			S1190.3,598.1,13,631C46.1,546,66.6,508.8,74.5,519.5C137,604.5,248,527,284.5,467z"/>
	</g>
	<g>
		<path class="st5" d="M284.5,467c24.5-35,97-157.5,291-168.2C757.2,288.8,872,475,1090,467c89.7-3.3,143.9-160.8,314.5-188.5
			C1568.7,251.9,1486,96.4,1598-4.7c93.3-84.2,418.9-143.7,523-88.3c23.4,12.4,23.4,115.4,0,309c-228,243.8-342,365.7-342,365.7
			S1190.3,598.1,13,631C46.1,546,66.6,508.8,74.5,519.5C137,604.5,248,527,284.5,467z"/>
	</g>
</g>
<g id="estrellas" transform="translate(1016.500000, 249.500000) scale(1, -1) translate(-1016.500000, -249.500000) translate(100.000000, 23.500000)">
	<path id="Combined-Shape" class="st6" d="M1256.7,237.3c0,0.6,0,1.1-0.2,1.7c0,0.1-0.5,1.5-0.7,1.4c-1.1-0.2-1.2-1.5-1.4-2.2
		c-0.1-0.3-0.1-0.6-0.1-0.9c-0.6,0-1.3,0-1.9-0.2c-0.1,0-1.6-0.5-1.5-0.7c0.2-1.1,1.6-1.2,2.3-1.4c0.3-0.1,0.7-0.1,1-0.1
		c0-0.1,0-0.1,0-0.2c0-0.5,0-1,0.2-1.5c0-0.1,0.5-1.5,0.7-1.4c1.1,0.2,1.3,1.4,1.4,2.1c0,0.3,0.1,0.7,0.1,1c0.1,0,0.2,0,0.3,0
		c0.5,0,1,0,1.6,0.1c0.1,0,1.6,0.5,1.5,0.7c-0.2,1.1-1.5,1.3-2.2,1.4C1257.4,237.3,1257,237.3,1256.7,237.3z"/>
	<path id="Fill-6" class="st7" d="M9.6,369.7c-0.7-0.1-1.3-0.2-2-0.1c-0.2,0-0.5,0-0.7,0c0-0.6-0.1-1.2-0.1-1.7
		c-0.1-1-0.3-2.6-1.4-2.9c-0.2,0-0.6,1.8-0.7,2c-0.1,0.7-0.2,1.3-0.1,2c0,0.2,0,0.5,0,0.7c-0.5,0-1.1,0.1-1.6,0.1
		c-0.9,0.1-2.7,0.2-3,1.4c0,0.2,1.8,0.6,2,0.7c0.9,0.2,1.8,0.2,2.7,0.2c0,0.5,0.1,1.1,0.1,1.6c0.1,0.9,0.2,2.7,1.4,3
		c0.2,0,0.6-1.8,0.7-2c0.2-0.9,0.2-1.8,0.2-2.7c0.6,0,1.2-0.1,1.7-0.1c1-0.1,2.6-0.3,2.9-1.4C11.6,370.2,9.8,369.7,9.6,369.7"/>
	<path id="Fill-1" class="st8" d="M672.3,75.2c-2.3,0.8-1.3,4.5,1,4.3c0.5,0,0.9-0.3,1.3-0.6c0.1,0,0.2-0.1,0.3-0.2
		C676.7,77.3,674,74.6,672.3,75.2"/>
	<path class="st6" d="M636.7,292.3c0,0.6,0,1.1-0.2,1.7c0,0.1-0.5,1.5-0.7,1.4c-1.1-0.2-1.2-1.5-1.4-2.2c-0.1-0.3-0.1-0.6-0.1-0.9
		c-0.6,0-1.3,0-1.9-0.2c-0.1,0-1.6-0.5-1.5-0.7c0.2-1.1,1.6-1.2,2.3-1.4c0.3-0.1,0.7-0.1,1-0.1c0-0.1,0-0.1,0-0.2c0-0.5,0-1,0.1-1.5
		c0-0.1,0.5-1.5,0.7-1.4c1.1,0.2,1.3,1.4,1.4,2.1c0,0.3,0.1,0.7,0.1,1c0.1,0,0.2,0,0.3,0c0.5,0,1,0,1.6,0.1c0.1,0,1.6,0.5,1.5,0.7
		c-0.2,1.1-1.5,1.3-2.2,1.4C637.4,292.3,637,292.3,636.7,292.3z"/>
	<path class="st8" d="M1556.3,337.5c0.5,0,0.9-0.3,1.3-0.6c0.1,0,0.2-0.1,0.3-0.2c1.9-1.4-0.8-4.1-2.6-3.6
		C1553,333.9,1554,337.7,1556.3,337.5z"/>
	<path class="st8" d="M1588.9,186c-1.5,0.5-0.9,3,0.7,2.9c0.3,0,0.6-0.2,0.9-0.4c0.1,0,0.1-0.1,0.2-0.1
		C1591.8,187.5,1590,185.6,1588.9,186"/>
	<path class="st9" d="M1622.3,393.2c-2.3,0.8-1.3,4.5,1,4.3c0.5,0,0.9-0.3,1.3-0.6c0.1,0,0.2-0.1,0.3-0.2
		C1626.7,395.3,1624,392.6,1622.3,393.2"/>
	<path class="st9" d="M1829.3,434.2c-2.3,0.8-1.3,4.5,1,4.3c0.5,0,0.9-0.3,1.3-0.6c0.1,0,0.2-0.1,0.3-0.2
		C1833.7,436.3,1831,433.6,1829.3,434.2"/>
	<path class="st9" d="M314.9,398c-1.5,0.5-0.9,3,0.7,2.9c0.3,0,0.6-0.2,0.9-0.4c0.1,0,0.1-0.1,0.2-0.1
		C317.8,399.5,316,397.6,314.9,398"/>
	<path class="st9" d="M404.9,238c-1.5,0.5-0.9,3,0.7,2.9c0.3,0,0.6-0.2,0.9-0.4c0.1,0,0.1-0.1,0.2-0.1
		C407.8,239.5,406,237.6,404.9,238"/>
	<path class="st9" d="M284.9,48c-1.5,0.5-0.9,3,0.7,2.9c0.3,0,0.6-0.2,0.9-0.4c0.1,0,0.1-0.1,0.2-0.1C287.8,49.5,286,47.6,284.9,48"
		/>
	<path class="st9" d="M53.6,312.6c-1,0.3-0.6,2,0.4,1.9c0.2,0,0.4-0.1,0.6-0.3c0,0,0.1,0,0.1-0.1C55.5,313.5,54.3,312.3,53.6,312.6"
		/>
	<path class="st9" d="M1354.6,418c-1,0.3-0.6,2,0.4,1.9c0.2,0,0.4-0.1,0.6-0.3c0,0,0.1,0,0.1-0.1
		C1356.5,419,1355.3,417.8,1354.6,418"/>
	<path class="st9" d="M1169.5,437.9c0.3,0,0.6-0.2,0.9-0.4c0.1,0,0.1-0.1,0.2-0.1c1.2-1-0.6-2.8-1.7-2.4
		C1167.3,435.5,1168,438,1169.5,437.9z"/>
	<path class="st9" d="M228.5,434.5c0.3,0,0.6-0.2,0.9-0.4c0.1,0,0.1-0.1,0.2-0.1c1.2-1-0.6-2.8-1.7-2.4
		C226.3,432.1,227,434.6,228.5,434.5z"/>
	<path class="st9" d="M1079.5,187.9c0.3,0,0.6-0.2,0.9-0.4c0.1,0,0.1-0.1,0.2-0.1c1.2-1-0.6-2.8-1.7-2.4
		C1077.3,185.5,1078,188,1079.5,187.9z"/>
	<path class="st9" d="M1533.9,420c-1.5,0.5-0.9,3,0.7,2.9c0.3,0,0.6-0.2,0.9-0.4c0.1,0,0.1-0.1,0.2-0.1
		C1536.8,421.5,1535,419.6,1533.9,420"/>
	<path class="st9" d="M570.9,210c-1.5,0.5-0.9,3,0.7,2.9c0.3,0,0.6-0.2,0.9-0.4c0.1,0,0.1-0.1,0.2-0.1
		C573.8,211.5,572,209.6,570.9,210"/>
	<path class="st6" d="M489.7,134.3c0,0.6,0,1.1-0.2,1.7c0,0.1-0.5,1.5-0.7,1.4c-1.1-0.2-1.2-1.5-1.4-2.2c-0.1-0.3-0.1-0.6-0.1-0.9
		c-0.6,0-1.3,0-1.9-0.2c-0.1,0-1.6-0.5-1.5-0.7c0.2-1.1,1.6-1.2,2.3-1.4c0.3-0.1,0.7-0.1,1-0.1c0-0.1,0-0.1,0-0.2c0-0.5,0-1,0.2-1.5
		c0-0.1,0.5-1.5,0.7-1.4c1.1,0.2,1.3,1.4,1.4,2.1c0,0.3,0.1,0.7,0.1,1c0.1,0,0.2,0,0.3,0c0.5,0,1,0,1.6,0.2c0.1,0,1.6,0.5,1.5,0.7
		c-0.2,1.1-1.5,1.3-2.2,1.4C490.4,134.3,490,134.3,489.7,134.3z"/>
	<path class="st6" d="M1391.7,206.4c0,0.6,0,1.1-0.2,1.7c0,0.1-0.5,1.5-0.7,1.4c-1.1-0.2-1.2-1.5-1.4-2.2c-0.1-0.3-0.1-0.6-0.1-0.9
		c-0.6,0-1.3,0-1.9-0.2c-0.1,0-1.6-0.5-1.5-0.7c0.2-1.1,1.6-1.2,2.3-1.4c0.3-0.1,0.7-0.1,1-0.1c0-0.1,0-0.1,0-0.2c0-0.5,0-1,0.2-1.5
		c0-0.1,0.5-1.5,0.7-1.4c1.1,0.2,1.3,1.4,1.4,2.1c0,0.3,0.1,0.7,0.1,1c0.1,0,0.2,0,0.3,0c0.5,0,1,0,1.6,0.1c0.1,0,1.6,0.5,1.5,0.7
		c-0.2,1.1-1.5,1.3-2.2,1.4C1392.4,206.3,1392,206.4,1391.7,206.4z"/>
	<path class="st6" d="M1776.7,178.3c0,0.6,0,1.1-0.2,1.7c0,0.1-0.5,1.5-0.7,1.4c-1.1-0.2-1.2-1.5-1.4-2.2c-0.1-0.3-0.1-0.6-0.1-0.9
		c-0.6,0-1.3,0-1.9-0.2c-0.1,0-1.6-0.5-1.5-0.7c0.2-1.1,1.6-1.2,2.3-1.4c0.3-0.1,0.7-0.1,1-0.1c0-0.1,0-0.1,0-0.2c0-0.5,0-1,0.2-1.5
		c0-0.1,0.5-1.5,0.7-1.4c1.1,0.2,1.3,1.4,1.4,2.1c0,0.3,0.1,0.7,0.1,1c0.1,0,0.2,0,0.3,0c0.5,0,1,0,1.6,0.1c0.1,0,1.6,0.5,1.5,0.7
		c-0.2,1.1-1.5,1.3-2.2,1.4C1777.4,178.3,1777,178.3,1776.7,178.3z"/>
	<path class="st7" d="M269.1,178.7c-0.7-0.1-1.3-0.2-2-0.2c-0.2,0-0.5,0-0.7,0c0-0.6-0.1-1.2-0.1-1.7c-0.1-1-0.3-2.6-1.4-2.9
		c-0.2,0-0.6,1.8-0.7,2c-0.1,0.7-0.2,1.3-0.1,2c0,0.2,0,0.5,0,0.7c-0.5,0-1.1,0.1-1.6,0.1c-0.9,0.1-2.7,0.2-3,1.4
		c0,0.2,1.8,0.6,2,0.7c0.9,0.2,1.8,0.2,2.7,0.2c0,0.5,0.1,1.1,0.1,1.6c0.1,0.9,0.2,2.7,1.4,3c0.2,0,0.6-1.8,0.7-2
		c0.2-0.9,0.2-1.8,0.2-2.7c0.6,0,1.2-0.1,1.7-0.1c1-0.1,2.6-0.3,2.9-1.4C271.1,179.2,269.3,178.8,269.1,178.7"/>
	<path class="st7" d="M63.6,78.7c-0.7-0.1-1.3-0.2-2-0.2c-0.2,0-0.5,0-0.7,0c0-0.6-0.1-1.2-0.1-1.7c-0.1-1-0.3-2.6-1.4-2.9
		c-0.2,0-0.6,1.8-0.7,2c-0.1,0.7-0.2,1.3-0.1,2c0,0.2,0,0.5,0,0.7c-0.5,0-1.1,0.1-1.6,0.1c-0.9,0.1-2.7,0.2-3,1.4
		c0,0.2,1.8,0.6,2,0.7c0.9,0.2,1.8,0.2,2.7,0.2c0,0.5,0.1,1.1,0.1,1.6c0.1,0.9,0.2,2.7,1.4,3c0.2,0,0.6-1.8,0.7-2
		c0.2-0.9,0.2-1.8,0.2-2.7c0.6,0,1.2-0.1,1.7-0.1c1-0.1,2.6-0.3,2.9-1.4C65.6,79.2,63.8,78.7,63.6,78.7"/>
</g>
<g id="p.azul-morado" transform="translate(1515.000000, 150.600000) scale(1, -1) translate(-1515.000000, -150.600000) translate(1482.000000, 114.000000)">
	<g id="Group-3" transform="translate(0.000000, 0.564928)">
		<g>
			<path class="st10" d="M56.4,58.2C68,70.1,67.6,89,55.7,100.5c-12,11.5-31,11.2-42.6-0.7C1.5,88,1.8,69,13.8,57.5
				C25.7,46,44.8,46.3,56.4,58.2z"/>
		</g>
		<defs>
			<filter id="Adobe_OpacityMaskFilter_1_" filterUnits="userSpaceOnUse" x="0.1" y="-119.5" width="57" height="41.2">
				<feColorMatrix  type="matrix" values="1 0 0 0 0  0 1 0 0 0  0 0 1 0 0  0 0 0 1 0"/>
			</filter>
		</defs>
		<mask maskUnits="userSpaceOnUse" x="0.1" y="-119.5" width="57" height="41.2" id="mask-7_1_">
			<g class="st11">
				<path id="path-6_1_" class="st2" d="M56.4,58.2C68,70.1,67.6,89,55.7,100.5c-12,11.5-31,11.2-42.6-0.7C1.5,88,1.8,69,13.8,57.5
					C25.7,46,44.8,46.3,56.4,58.2z"/>
			</g>
		</mask>
		<path id="Path-9" class="st12" d="M2.9,79.9c2.7,2.3,10.4-1,18.2-1.5s19.5,1.2,22.6,15.1c2.1,9.2,6.5,11.4,13.5,6.7
			c-13.3,13.3-20.7,19.8-22.2,19.3c-2.2-0.7-34-3.5-34.6-6.5C-0.3,110,0.2,77.7,2.9,79.9z"/>
	</g>
	<path id="Fill-188" class="st13" d="M4.7,78.1c0.7,0.5,1.4,0.7,1.8,1.9c0.6,1.9-0.2,3.5-1.4,5C5,84.6,5,84.3,5,84
		c0.7-1,1.1-2.1,0.8-3.4c-0.2-0.7-0.6-1.2-1.1-1.5C4.6,78.7,4.7,78.4,4.7,78.1"/>
	<path id="Fill-190" class="st7" d="M60.2,63.6c-2.3-1.6-4.8-2.7-7.6-3.5c-2.5-0.8-5.8-1.2-7.8-3.1c-1.8-1.6-1.8-3.8-1.6-6
		c1,0.3,2.1,0.6,3.1,1.1c-0.1,1.7,0.3,3.1,3.5,4.5c2.6,1.1,5.3,2.2,7.7,3.6C58.4,61.1,59.4,62.3,60.2,63.6"/>
	<path id="Fill-192" class="st7" d="M56.5,64.7c0,1.2-1.7,2.7-2.7,1.5c0,0,0-0.1,0-0.1c-0.6-0.5-1-1.1-1.3-1.9
		c-0.2-0.4,0.1-1,0.5-1.2C54.4,62.5,56.5,62.9,56.5,64.7"/>
	<path id="Fill-194" class="st7" d="M60.4,83.4C60.3,82,61,81,61.8,79.9c1.3-1.9,2.2-3.8,2.5-5.8c0.3,1.7,0.5,3.4,0.5,5.1
		c-0.3,0.6-0.6,1.1-0.9,1.8c-1.1,2.1-0.7,3.6,0.3,4.9c-0.2,0.8-0.4,1.7-0.7,2.5C61.9,86.4,60.4,84.4,60.4,83.4"/>
	<path id="Fill-196" class="st7" d="M55.8,86.7c-1-1.6-1.8-3.3-2.6-5c-0.1-0.2,0.2-0.4,0.3-0.2c2.9,2.8,8.8,7.9,4.6,11.9
		c-2.8,2.7-7.2,3.3-10.7,1.9c0.1,0.1,0.2,0.2,0.3,0.2c1.6,1.5,2.9,3.3,5.4,3.5c1.7,0.1,4-0.6,5.7-1.4c-0.5,0.7-1.1,1.3-1.6,1.9
		c-1.8,0.7-3.8,0.9-5.4,0.5c-3.9-1-5.3-5.3-9.3-6.3c-0.3-0.1-0.3-0.5,0-0.6c1.3-0.3,2.4,0.1,3.4,0.7c0.1,0,0.2-0.1,0.2,0
		c3.1,1.6,7.9,1.2,10.3-1.5C58.3,90.5,57.1,88.7,55.8,86.7"/>
	<path id="Fill-198" class="st7" d="M10.9,90.8c-0.1-0.2,0.3-0.4,0.4-0.2c2.7,3.4,5.5,6.6,10,7.3c0.2,0,0.4,0,0.5,0
		c-5.4-1.5-10.1-6.6-11.1-11.8c-0.1-0.4,0.3-0.6,0.6-0.5c0.2-0.3,0.8-0.4,0.9,0.1c0.7,2.9,5.1,5.3,7.9,5.3c1.4,0,2.2-0.4,2.8-1
		c-0.1,0-0.2-0.1-0.3-0.1c-3.9-3.2-7.3-8-7.5-13.2c-0.3-0.5-0.5-1.2-0.5-1.9c-0.1-2.8,1.5-6.1,2.6-8.5c2.3-5,5.9-12.2,11.8-13.6
		c0.4-0.1,0.6,0.5,0.3,0.7c-4.5,3-6.9,7.9-9,12.8c0,0,0,0,0,0c1.3-1.2,2.7-2.2,4-3.1c1.9-1.3,3.9-2.5,6.1-3.2
		c-0.5-0.2-0.9-0.4-1.4-0.9c-0.3-0.4-0.5-0.9-0.4-1.4c0.8-2.2,2.2-1.8,4-2.8c2.1-0.4,2.5-2,1.3-4.9c1.4,0,2.8,0,4.2,0.2
		c0.5,1.1,0.7,2.4,0.2,3.7c-0.4,1-3.9,4.1-5.7,4.2c0.9,0.4,2.3,0.9,3.3,1.3c1,0.1,2,0.3,3,0.6c3.2,1.1,6,3.6,6.8,6.9
		c0.1,0.2,0.1,0.3,0.2,0.5c0.4,1,0.7,2,0.4,3.1c0,0,0,0,0,0c0.2,0.3-0.3,0.6-0.6,0.4c0,0,0,0,0,0c-0.2,0-0.3-0.1-0.4-0.3
		c0-0.1-0.1-0.1-0.1-0.2c-3.1-2.8-7.1-4.1-11.1-3.4c1.9,0.5,3.6,1.6,4.7,3.7c0.2,0.4,0,0.7-0.3,0.8c0.2,0.2,0.4,0.4,0.5,0.6
		c1.6,2.3,2.5,5,2.8,7.7c0.2,1.7-0.1,3.5,0.3,5.2c0.5,1.8,1.6,3.2,3.1,4.1c2.7,1.9,3.2,0.8,1.5-3.3c-0.2,0.1-0.5-0.2-0.3-0.4
		c4-4.1,8.9,7.1,1.1,5.7c-3.8-0.7-6.3-3.7-6.9-7.4c-0.8-4.4-0.7-8.1-4.1-11.6c-1.6-1.7-3.5-2.7-5.6-3.5c-0.6,0.1-1.2,0.2-1.9,0.4
		c-2.7,1-5.5,3.5-6.3,6.3c-1.5,4.8,7.4,13.5,10.7,10.3c0,0,0-0.1,0-0.1c0.1-0.3,0.3-0.5,0.5-0.6c0.1-0.2,0.2-0.4,0.3-0.7
		c0.1-0.4,0.7-0.3,0.7,0.1c0,0.2,0,0.5,0,0.7c0.2,0.1,0.4,0.3,0.5,0.6c0.7,2.2,1.5,4.4,0.7,6.6c0.5,2,0.1,4.1-1.5,5.8
		c-1.9,1.9-4.3,3.1-6.8,4c-1.7,0.6-3.5,1.7-4.9,0.2c-0.3-0.3,0-0.7,0.4-0.6c2.5,0.6,6.4-3.4,8.2-5c0,0,0,0,0,0
		c-0.4,0.2-0.8,0.4-1.2,0.6c-2.5,1.8-5.6,2.9-8.3,2.6C17.2,99.1,12.1,95.5,10.9,90.8"/>
	<path id="Fill-200" class="st7" d="M26.9,55.4c0.2-0.4-0.4-0.8-0.8-0.7c-1.1,0.5-2.1,1.1-3.1,1.8c1.7-1.9,3.7-3.4,6.1-3.9
		c0.4-0.1,0.6,0.5,0.3,0.7C28.4,53.9,27.6,54.6,26.9,55.4"/>
	<path id="Fill-202" class="st13" d="M28.2,89.4c-1.3,1.1-2.6,2-4.1,2.7c-0.4,0.2-0.3,1,0.2,0.9c2.2-0.2,4.3-0.7,6.3-1.6
		c0.6-0.3,2.5-1.9,3.2-1.9c0.3-0.7,0.3-0.6,0.2,0.4c0,0.7-0.2,1.3-0.4,2c-1.2,4.6-5.2,9.9-10.2,10.5c-0.1-0.1-0.3-0.2-0.4-0.3
		c-0.3-0.3,0-0.7,0.4-0.6c2.5,0.6,6.4-3.4,8.2-5c0,0,0,0,0,0c-0.4,0.2-0.8,0.4-1.2,0.6c-2.5,1.8-5.6,2.9-8.3,2.6
		c-4.8-0.5-10-4-11.2-8.8c-0.1-0.2,0.3-0.4,0.4-0.2c2.7,3.4,5.5,6.6,10,7.3c0.2,0,0.4,0,0.5,0c-5.4-1.5-10.1-6.6-11.1-11.8
		c-0.1-0.4,0.3-0.6,0.6-0.5c0.2-0.3,0.8-0.4,0.9,0.1c0.7,2.9,5.1,5.3,7.9,5.3c1.4,0,2.2-0.4,2.8-1c-0.1,0-0.2-0.1-0.3-0.1
		c-3.9-3.2-7.3-8-7.5-13.2c-0.3-0.5-0.5-1.2-0.5-1.9c-0.1-2.8,1.5-6.1,2.6-8.5c0.2-0.4,0.4-0.8,0.6-1.3
		C15.4,74.2,19.3,86.6,28.2,89.4"/>
	<path id="Fill-204" class="st7" d="M18.8,56.1c-0.2,0.5-0.2,1.3-0.6,1.7c-1.2,1-2.7,0.4-3.2-0.7c1.8-1.6,3.8-3,5.9-4.1
		C19.9,54,19.2,54.9,18.8,56.1"/>
	<path id="Fill-206" class="st7" d="M55.2,77.5c-0.5,0-0.9,0.1-1.2,0.1c-1,0-1.9-0.3-2-1.4c-0.2-2.3,2.7-3.5,4.6-3
		c1.3,0.3,2.4,1.1,3.3,2c0.8,0.8,2,1.9,1.3,3.1c-0.5,0.8-1.4,0.9-2.3,0.8c-0.2,0.1-0.5,0.1-0.7-0.1c-0.1,0-0.3-0.1-0.4-0.1
		c-0.6-0.2-1.2-0.5-1.7-0.9C55.9,77.8,55.5,77.7,55.2,77.5"/>
	<path id="Fill-208" class="st13" d="M10.7,64c0.6-0.2,1.4,0,1.9,0.7c1.4,2.1,0.2,3.1-0.9,4.7c-1.2,1.6-0.5,4.4-2.2,5.7
		c-2.2,1.6-3.3-0.4-3.9-2.6c0.2-0.8,0.4-1.6,0.7-2.4c0.1,0.6,0.2,1.2,0.3,1.8c0.1,0.4,0.2,1.6,0.5,1.8c0.8-0.2,1.5-0.4,2.3-0.6
		c0.1-0.5,0.2-0.9,0.2-1.4c0.1-1.6,0.9-3.4,0.6-4.9c-0.3-0.2-0.5-0.4-0.8-0.7C9,65.4,9.1,64.8,9,64.2c0,0,0,0,0,0
		c0.4-0.6,0.7-1.2,1.2-1.8C10.4,62.9,10.5,63.4,10.7,64"/>
	<path id="Fill-210" class="st7" d="M38.3,96.5c0.1-0.6,0.2-1.2,0.5-1.7c0.3-0.6,1.1-0.3,1.3,0.2c1.2,4.5,1.8,8.5,7.1,9.8
		c1,0.2,1.9,0.4,2.9,0.5c-3.6,2.1-7.6,3.4-11.6,3.9C36.3,105.2,36,100.1,38.3,96.5"/>
	<path id="Fill-212" class="st13" d="M24.6,107.8c0.2,0,0.5-0.1,0.7-0.1c-0.2-1.9,1.9-2.2,3.3-3c2-1,3-3.4,5.5-3.5
		c0.6,0,1.2,0.6,1.2,1.2c-0.2,1.6-0.8,5.5-2.4,7.1C30,109.3,27.2,108.7,24.6,107.8"/>
</g>
<g id="p.morado" transform="translate(453.500000, 478.339286) scale(1, -1) translate(-453.500000, -478.339286) translate(416.000000, 440.339286)">
	<g>
		<g>
			<path class="st14" d="M37.2,48.6C16.7,48.6,0,65.3,0,85.9c0,20.6,16.7,37.3,37.2,37.3c20.5,0,37.2-16.7,37.2-37.3
				C74.4,65.3,57.8,48.6,37.2,48.6z"/>
		</g>
		<defs>
			<filter id="Adobe_OpacityMaskFilter_2_" filterUnits="userSpaceOnUse" x="0.7" y="-137.4" width="85.8" height="59.3">
				<feColorMatrix  type="matrix" values="1 0 0 0 0  0 1 0 0 0  0 0 1 0 0  0 0 0 1 0"/>
			</filter>
		</defs>
		<mask maskUnits="userSpaceOnUse" x="0.7" y="-137.4" width="85.8" height="59.3" id="mask-9_1_">
			<g class="st15">
				<path id="path-8_1_" class="st2" d="M37.2,48.6C16.7,48.6,0,65.3,0,85.9c0,20.6,16.7,37.3,37.2,37.3c20.5,0,37.2-16.7,37.2-37.3
					C74.4,65.3,57.8,48.6,37.2,48.6z"/>
			</g>
		</mask>
		<path class="st16" d="M0.7,96.6c0-0.8,1.5-17.2,12.6-13.7c11.1,3.5,16,10.5,24.1,13.7s34.1,15.1,37-11.3
			c1.9-17.6,5.9-3.2,12.2,43.3c-54.8,6.8-82.3,9.7-82.6,8.5C3.5,135.4,0.7,97.4,0.7,96.6z"/>
	</g>
	<path id="Fill-4" class="st17" d="M24,89.6c-4.2,1.4-5.8,6.1-4.3,10.3c1.9,5.3,7.3,4.8,10.7,8.3c-3.7-0.9-7.4-2.6-10.8-4.2
		c-2-1-3.8-2.3-5.3-3.9c0-0.1-0.1-0.1-0.1-0.2c-3.5-4.8-5.5-12.2-0.8-16.9c4.8-4.7,11.9-3.7,17.7-2c7.7,2.4,15.8,5.3,23.9,3.2
		c7.1-1.8,12.3-7.9,12.3-15.2c0-0.1-0.1-0.1-0.1-0.2c-0.1-0.2,0-0.4,0.1-0.5c0-0.1,0-0.2,0-0.4c0.6,0.7,1.1,1.4,1.5,2.2
		c2.1,4.7-0.5,10.3-4.3,13.4c-5,4.2-11.8,6.4-18.2,7c-3.6,0.4-7.1,0.2-10.7-0.4C31.9,89.6,27.9,88.3,24,89.6"/>
	<path class="st18" d="M2.7,91.2c0.2-5.4,2.9-10.4,7.1-13.7c11.7-8.9,24.8,1.4,37.5,0.3c3.3-0.3,6.7-1.5,9.1-3.8
		c3-2.9,3.3-6.8,3.4-10.8c0-0.2,0.1-0.3,0.2-0.5c1,0.2,1.9,0.6,2.7,1.3c1.9,3.4,2,7.6,0.5,11.2c-2,4.5-6.4,7-11.1,7.6
		c-12.5,1.5-25.9-9.8-37.5-1.7c-6.7,4.7-8.6,13.6-5,20.9c0.2,0.5,0,1-0.6,1C3.7,102.8,2.5,95.2,2.7,91.2"/>
	<path id="Fill-8" class="st17" d="M23.9,72.2c3.6,1.2,7.8,1.3,11.6,1.3c6.2-0.1,12.1-1.6,16-7c3-4.3-3.9-7-7.3-6.5
		c-1.1,0.2-2.3,0.6-2.9,1.6c-0.9,1.3,0.3,3.2-1.2,4.2c-1.6,1-5.6,0.5-7-0.6c-2-1.5-1.2-3-1.7-4.9c-0.6-2.4-4.1-1.3-5.5-0.5
		c-2.5,1.4-5.3,4.6-5.6,7.6C19.8,69.8,21.8,71.4,23.9,72.2"/>
	<path id="Fill-10" class="st19" d="M35.5,53.7c-0.8,0.3-1.4,0.9-2,1.6c-0.5,0.6-1,0.8-1.5,0.7c-0.6-0.3-1.2-1-1.3-1.9
		c-0.1-1.2,0.7-2,1.5-2.1c1.6-0.2,3.5,0.5,5.1,0.8C37.4,53.3,36,53.5,35.5,53.7"/>
	<path id="Fill-12" class="st18" d="M6.8,75.9c-1.2,1-2.3,2.2-3.3,3.5c0,0.1,0,0.1,0,0.2c-0.2,0.2-0.3,0.4-0.5,0.5
		c-0.5-1.5-0.2-3.3-0.1-4.9c1.6-5.1,5.5-9.8,9.3-13.1c2.8-2.4,6-4.6,9.4-6.3c1.7-0.9,5.6-1.8,7.2-0.5c1.9,1.5-0.3,2.3-1.6,3
		C25,59.6,23,61.2,21.4,63c-1.2,1.4-1.9,3.1-3.2,4.5c-1.5,1.6-3.3,2.8-5.1,3.9C10.8,72.8,8.7,74.2,6.8,75.9"/>
	<path id="Fill-14" class="st17" d="M33.9,57.4c6.8,1.8,14.6,3.4,21.5,2.2c0.5,0.3,1.2-0.5,0.7-1c-6-6.1-15.4-7-22.3-2.2
		C33.4,56.6,33.4,57.3,33.9,57.4"/>
	<path id="Fill-16" class="st18" d="M42.8,101.9c0.1,0,0.1,0,0.2,0c5.3-2.8,11.2-3.5,16.6-5.9c3.7-1.6,5.9-4.1,7.4-7.8
		c0.2,0.2,0.4,0.3,0.7,0.5c2.7,4.5,2.5,10,0.2,14.7c-2.1,4.3-6.5,9.4-11.5,10.2c-2.8,0.4-5.5-0.8-7.9-2c-2.3-1.2-5-2.8-6.3-5.1
		C41,104.4,41.5,103,42.8,101.9"/>
</g>
<g id="p.verde" transform="translate(427.750000, 204.312500) scale(1, -1) translate(-427.750000, -204.312500) translate(394.000000, 170.000000)">
	<g transform="translate(0.000000, 0.213750)">
		<g>
			<path class="st20" d="M63,66.2c8.7,16.3,2.6,36.6-13.7,45.3C33,120.2,12.7,114.1,4,97.8c-8.7-16.3-2.6-36.6,13.7-45.3
				S54.2,49.9,63,66.2z"/>
		</g>
		<defs>
			<filter id="Adobe_OpacityMaskFilter_3_" filterUnits="userSpaceOnUse" x="-6.9" y="-124.3" width="60.2" height="52.2">
				<feColorMatrix  type="matrix" values="1 0 0 0 0  0 1 0 0 0  0 0 1 0 0  0 0 0 1 0"/>
			</filter>
		</defs>
		<mask maskUnits="userSpaceOnUse" x="-6.9" y="-124.3" width="60.2" height="52.2" id="mask-11_1_">
			<g class="st21">
				<path id="path-10_1_" class="st2" d="M63,66.2c8.7,16.3,2.6,36.6-13.7,45.3C33,120.2,12.7,114.1,4,97.8
					c-8.7-16.3-2.6-36.6,13.7-45.3S54.2,49.9,63,66.2z"/>
			</g>
		</mask>
		<path id="Path-10" class="st22" d="M-1.3,75.9c12.4-5,24.2-5,35.2,0c16.6,7.5,17.8,18.7,18.8,21.8c1.1,3.1,0.6,12.5-1.9,16.1
			c-2.5,3.6-18.7,13.4-26,9.7s-32.1-10.9-31.7-13C-6.7,109.1-4.8,97.6-1.3,75.9z"/>
	</g>
	<path id="Fill-26" class="st23" d="M15.5,94.8c-0.3-1.6-0.2-3.3-0.8-4.8c-1-2.7-3.5-4.1-5.3-6.2c0.1-0.2,0.1-0.5,0.2-0.7
		c-0.7,0.2-1.3,0.4-2,0.7c1.9,2.5,4.6,5.4,4.1,8.4c-0.1,0.4-0.7,0.6-0.8,0.1c-0.7-3-2.8-5-5-6.8c0,0.2,0,0.3,0,0.6
		c0.1,1.1,0.6,2.2,1.1,3.3c0.8,1.7,1.8,3.2,2.5,4.9c0.1,0.1-0.1,0.2-0.2,0.1c-1-1.4-5.1-7-4.9-10c0,0-0.1-0.1-0.1-0.1
		c-0.7-0.6-0.5-1.9,0.4-2.3c2.5-1,5.3-1.3,8-1.1c0.1,0,0.1,0,0.2,0c0.2,0,0.3,0,0.5,0c0,0.4,0.3,0.8,0.8,0.7
		c0.9-0.2,1.8-0.3,2.6-0.4c0.3,0.1,0.6,0.1,0.9,0.2c2.5,0.7,4.7,2.1,6.7,3.6c-0.9-0.2-1.8,0.6-1.4,1.7c1.8,4,3.9,7.8,6.5,11.3
		c-3-1-5.9-1.8-9-2.3c-1.2-0.2-2.1,1-1.2,2c1.1,1.3,2.3,2.5,3.5,3.6c0,0,0,0,0,0c-4.9-3.9-4.5,0.7-6.5-3.3
		C15.8,96.6,15.7,96,15.5,94.8 M4,98c3,5.6,7.4,9.9,12.5,12.9c1.4-0.3,2.8-0.6,4.2-0.8c1.6-0.6,3.3-1.1,5-1.2c2-0.1,3.7,0.8,5.6,0.6
		c1.9-0.2,2.9-1.5,4.7-2c2.5-0.7,4.3,1.2,6.1,2.7c1.1,1,2.2,2,3.2,3.1c1.4-0.5,2.7-1.1,4-1.8c6.6-3.6,11.6-9.1,14.5-15.4
		c-0.5-0.6-1.1-1.2-1.7-1.7c-3.6-2.7-6.2-0.9-6.3,3.3c0,1.9,0.2,3.8-0.2,5.6c-0.6,2.5-3.5,6.8-6.8,3.7c-2.2-2.1-1.4-6.6-3.5-9
		c-2.1-2.4-5.9-3.5-8.6-5c-1.8-1-3.5-2.1-5.2-3.2c2.8,4.5,6,8.4,11.2,11c0.2,0.1,0,0.5-0.2,0.4c-5.5-2.3-9.9-6.1-13.3-11.1
		c-1.4-2-2.5-4.4-3.8-6.6c1.7,1.3,3.4,2.8,5,4.1c0.3,0.2,0.6-0.1,0.4-0.4c-2.3-2.7-6.3-6.5-10.5-7.9c-0.6-0.4-1.3-0.7-2-1
		c1.2-0.1,2.5-0.1,3.9,0.4c2.9,0.9,5.1,2.7,7.6,4.3c0.4,0.3,0.8-0.3,0.5-0.6c-1.9-2.4-5.3-4.6-8.9-5.7c2.1-0.4,4.1-0.3,6.2-0.2
		c0.4,0,0.5-0.6,0.1-0.7c-2.9-1-7.3-1.2-10.5,0.2c0,0-0.1-0.1-0.1-0.1c-0.5-0.3-1-0.1-1.6,0.1c-0.8,0.2-1.6,0.5-2.4,0.5
		c-0.4,0-0.5,0.4-0.3,0.6c-0.4,0-0.8-0.1-1.2-0.1c-0.1,0-0.1-0.1-0.2-0.1c-0.2,0-0.4,0-0.5,0.1c-0.4,0-0.9,0.1-1.3,0.1
		c1-2.1,1.5-4.8,0.9-6.7c-0.4-1.1-1.2-1.6-2.1-2.2C9.1,69.9,9.3,72,9,73.5c-0.4,2.1-2.2,4-4.5,3.6C4.1,77,4,76.3,4.4,76.2
		c0.8-0.4,1.8-0.5,2.4-1.3c0.6-0.7,0.8-1.6,0.9-2.5c0.1-1.7-0.5-3.3-0.6-5c0,0,0,0,0,0c-0.2-0.2-0.4-0.5-0.5-0.7
		c-1,0.8-1.8,1.8-1.9,3.3c-0.1,2.3,0,3.9-2.4,4.9c-0.3,0.1-0.5-0.2-0.2-0.4c3.2-2.1,0-5.5,1.9-8c0.8-1,2.1-2.1,3.6-2.8
		c0.1-0.2,0.3-0.3,0.4-0.5c0.1-0.2,0.1-0.5,0.1-0.7c0.9-0.8,1.7-1.8,2.7-2.5c0.9-1.2,2-1.5,3.2-0.9c-0.1,0.5-0.1,1-0.1,1.4
		c-0.1,2.1,0.4,4.2,1.6,5.9c1.7,2.4,3.5,3.5,4.2,6.3c0,0.4,0,0.6,0.3,1.1c0.4,0.9,1.9,0.8,2.2-0.2c0.4-1.9,0.2-3.5-0.5-4.9
		c1.2,0.8,2.3,1.8,3,3.4c0.1,0.3,0.6,0.2,0.6-0.1c0-1.9-1.1-3.2-2.5-4.4c-1.3-1.1-2.9-1.9-4-3.2c-1-1.7-0.9-3-1-5.2
		c-0.1-1.1-0.4-2-1.2-2.8c-1-0.9-2.1-1-3.2-0.8C0.4,65.3-3.9,83.3,4,98"/>
	<path id="Fill-28" class="st24" d="M16.5,56.3c0.8,0.8,1.1,1.7,1.2,2.8c0.2,2.2,0,3.5,1,5.2c1.1,1.3,2.7,2.1,4,3.2
		c1.5,1.2,2.5,2.5,2.5,4.4c0,0.3-0.5,0.4-0.6,0.1c-0.7-1.6-1.8-2.6-3-3.4c0.7,1.5,0.9,3,0.5,4.9c-0.2,1-1.7,1.1-2.2,0.2
		c-0.2-0.5-0.3-0.7-0.3-1.1c-0.7-2.8-2.6-4-4.2-6.3c-1.2-1.7-1.7-3.8-1.6-5.9c0-0.5,0.1-1,0.1-1.4c-1.3-0.5-2.3-0.2-3.2,0.9
		c-1,0.8-1.8,1.7-2.7,2.5c0.1,0.2,0.1,0.5-0.1,0.7c-0.1,0.1-0.2,0.3-0.4,0.5c-1.5,0.7-2.8,1.8-3.6,2.8c-0.1,0.1-0.2,0.3-0.2,0.4
		c2.2-4.3,5.4-8.2,9.5-11.3C14.4,55.3,15.6,55.4,16.5,56.3"/>
	<path id="Fill-30" class="st24" d="M21.5,76.9c0.5,0.2,1,0.3,1.5,0.5c-7.2-0.2-14.3,1.9-21.5,2.1c-0.8,0-1.4,0.9-1,1.6
		c1.7,3,2.8,6.3,4.3,9.4c-1.5,0.1-2.8-0.2-3.8-0.7C-0.9,82.1,0.1,74,3.7,67.1c-1,2.5,1.4,5.5-1.5,7.4c-0.2,0.2-0.1,0.5,0.2,0.4
		c2.4-1,2.3-2.6,2.4-4.9c0.1-1.5,0.9-2.5,1.9-3.3c0.1,0.3,0.3,0.5,0.5,0.7c0,0,0,0,0,0c0.1,1.7,0.7,3.3,0.6,5
		c-0.1,0.9-0.3,1.8-0.9,2.5c-0.7,0.7-1.6,0.9-2.4,1.3C4,76.3,4.1,77,4.5,77.1c2.3,0.5,4.1-1.5,4.5-3.5c0.3-1.5,0.2-3.6-0.6-5.1
		c0.9,0.6,1.7,1.1,2.1,2.2c0.6,1.9,0.1,4.6-0.9,6.7c0.4-0.1,0.9-0.1,1.3-0.1c0.2,0,0.3-0.1,0.5-0.1c0.1,0,0.1,0,0.2,0.1
		c0.4,0,0.8,0,1.2,0.1c-0.1-0.2,0-0.6,0.3-0.6c0.8,0,1.6-0.3,2.4-0.5c0.6-0.1,1.1-0.3,1.6-0.1c0,0,0.1,0.1,0.1,0.1
		c3.2-1.4,7.6-1.2,10.5-0.2c0.4,0.1,0.3,0.8-0.1,0.7C25.6,76.6,23.5,76.6,21.5,76.9"/>
	<path id="Fill-32" class="st24" d="M55.4,104.3c0.1-0.3,0.2-0.5,0.2-0.8c0.5-1.8,0.2-3.7,0.2-5.6c0-4.2,2.7-5.9,6.3-3.3
		c0.6,0.5,1.2,1,1.7,1.7c-0.5,1.2-1.2,2.3-1.9,3.4C58.8,98.6,57.1,101.7,55.4,104.3"/>
	<path id="Fill-34" class="st25" d="M35.1,111.6c-2.2,0-4.3,0.5-6.5-0.1c-1.1-0.3-2-0.7-3-1c0.7,0,1.5,0,2.2,0.1
		c2.4,0.5,3.2,1.2,5.5,0c2.2-1.1,3.2-2.6,5.9-1.3c1.9,0.9,3.7,2.8,5.2,4.4c-0.9,0.3-1.9,0.6-2.8,0.8
		C39.7,112.9,37.7,111.6,35.1,111.6"/>
	<path id="Fill-36" class="st25" d="M18.9,112.3c0.6-0.2,1.3-0.5,1.9-0.7c1.8-0.2,3.6-0.1,5.5,0.5c2,0.6,3.4,1.2,5.5,1.2
		c3.4,0,5.6-0.5,8.3,1.8C32.8,116.5,25.4,115.5,18.9,112.3"/>
	<path id="Fill-38" class="st26" d="M65,93.3c0.2-3-0.6-6.3-1.9-8.5c-0.2-0.4-0.4-0.7-0.6-1c0.5,1.1,0.9,2.2,1.2,3.3
		c0.4,1.7,1,3.7-0.4,5c-0.1,0.1-0.2,0-0.2-0.1c1.1-2.7-0.5-6.1-1.7-8.5c-0.2-0.5-0.5-1-0.8-1.4c0.2,3,1.2,6.2,0.1,8.9
		c-0.1,0.2-0.4,0.2-0.4-0.1c0.3-2.8-0.6-6.2-1-9c-0.2-1.6-0.7-3.4-0.1-4.9c0.2-0.5,0.5-0.9,0.8-1.2c0.2-0.5,0.5-1,1-1.4
		c0.6-0.5,1.5-0.6,2.2-1c0.9-0.5,1.4-1.2,1.9-1.9c0.7,1.9,1.1,3.9,1.4,5.8c-0.5,0.4-1.1,0.7-1.6,0.8c-0.2,0-0.5-0.2-0.4-0.4
		c0.1-0.3,0.3-0.6,0.5-0.9c0.1-0.4,0.2-0.8,0.3-1.2c0-0.1,0-0.1,0-0.2c-1.7,1.3-3,2.1-1.2,5.3c1.1,1.9,2,3,2.6,4.7
		C66.5,88.1,65.9,90.8,65,93.3"/>
	<path id="Fill-40" class="st26" d="M30.9,48.8c-0.3,2.2-3.2,5-2.2,7.1c0.6,1.3,2.7,2.3,1.7,4.1c-0.6,1.2-2.6,1.6-4.4,2
		c-0.7,0.5-1.4,1-2.2,1.3c-0.4,0.1-0.9-0.2-0.6-0.6c-0.3-0.2-0.4-0.6-0.2-0.9c0.5-0.5,1-0.8,1.6-1.1c0-0.1,0.1-0.1,0.1-0.2
		c1.2-3.1-0.1-3.2-1.6-4.2c-1.3-0.9-2.3-1.9-2.9-3.4c-0.1-0.4-0.3-0.8-0.3-1.2C23.5,50.1,27.2,49.1,30.9,48.8"/>
	<path id="Fill-42" class="st26" d="M40.5,88c-1.2-0.4-1.6-1.8-1.8-2.9c0-0.3,0.3-0.5,0.5-0.3c0.4,0.8,1.2,1.2,2.2,1.2
		c0.1-0.1,0.2-0.3,0.2-0.4c0.3-0.2,0.4-0.5,0.7-0.7c0.8-0.4,1.6-0.3,2.3,0.2c0.9,0.6,1.1,1.5,1.6,2.3c0.5,0.8,1.1,1.4,1.8,1.8
		c-0.1-0.7-0.2-1.3-0.3-2c-0.2-0.8-0.6-1.8-0.5-2.7c0.1-0.9,0.5-1.3,1.4-1.3c0.4,0,0.4,0.6,0.1,0.7c-1.1,0.4,1.9,6.1,2.3,6.8
		c0.7,1.1-0.6,2.6-1.8,2.2c-1.4-0.5-2.6-1.3-3.5-2.4c-0.5-0.5-0.9-1.1-1.2-1.7C44,88,44,86.9,43,87.2c-0.3,0.1-0.6,0.7-1.1,0.8
		C41.5,88.2,41,88.2,40.5,88"/>
	<path id="Fill-44" class="st26" d="M33.2,77.8c-1.3,0.5-3.3-0.9-2.2-2.3c1.1-1.4,3.4-3.5,5.3-3.4c0.6,0,1.2,0.4,1.4,1
		c1,0.8,1.9,1.7,2.3,2.9c0.4,0.9-0.7,1.9-1.4,1c-0.5-0.6-1.1-1.3-1.8-1.7c-0.3,0.2-0.6,0.4-0.9,0.6C35.1,76.6,34.3,77.3,33.2,77.8"
		/>
	<path id="Fill-46" class="st26" d="M38.1,55.9c-0.1,0.8-1.4,1.1-1.5,0.1c0-0.2-0.1-0.4-0.1-0.7c-2.2-1.9-2.6-4.3-1.9-6.6
		c0.8,0,1.6,0,2.4,0.1c0,0,0,0,0,0c-0.6,1.2-0.6,2.2-0.4,3.3c0.1-1.2,0.4-2.3,1-3.2c1,0.1,2,0.3,3,0.5c-0.9,0.1-1.7,0.6-1.9,2
		C38.2,52.9,38.3,54.4,38.1,55.9"/>
	<path id="Fill-48" class="st24" d="M36.1,60.9c0.7,0.2,1.4,0.4,2.1,0.8c1,0.7,2.1,2.1,1.8,3.4c-0.1,0.4-0.6,0.5-0.9,0.2
		c-0.5-0.5-0.8-1.1-1.3-1.6c-0.6-0.5-1.2-0.7-1.9-0.9c-1.1-0.2-2.3-0.5-2.3-1.8c0-0.4,0.4-0.7,0.7-0.7
		C34.9,60.3,35.5,60.7,36.1,60.9"/>
	<path id="Fill-50" class="st26" d="M63.9,68.4c-0.8,0.3-1.7,0.4-2.7,0.2c-2.7-0.7-5.2-3.5-7.3-5.3c-0.1-0.1-0.2-0.1-0.2-0.2
		c2.4,2.9,3.9,7,5.1,9.9c0.1,0.3-0.3,0.6-0.5,0.3c-1.9-3.2-3.5-7.3-6.4-9.8c1.4,3.1,1.9,6.7,1.5,9.6c-0.6,3.9-4.5,8-8.2,4.7
		c-0.3-0.2,0.1-0.5,0.3-0.4c5.7,2.6,6.7-3.8,6.2-7.2c-0.2-1.2-0.5-2.4-0.9-3.5c-1.1-3.4-2.9-5.8-5.5-8.2c-0.3-0.2-0.2-0.6-0.1-0.9
		l0,0c0-0.1,0.1-0.3,0.1-0.4c0-0.3,0.2-0.6,0.2-0.9c0.2-0.9,0.3-1.9,0.2-2.8c0-0.1,0-0.3-0.1-0.4c-0.7-1.1-1.7-1.9-2.8-2.6
		c-0.2-0.1-0.3-0.2-0.5-0.3C51,52.4,58.5,58,63,66.4C63.3,67,63.6,67.7,63.9,68.4"/>
</g>
<g id="planeta-3" transform="translate(1581.000000, 282.000000)">
	<g id="Group">
		<g>
			<path class="st27" d="M33.8-31.1c0-9.3-7.6-16.9-16.9-16.9S0-40.4,0-31.1s7.6,16.9,16.9,16.9S33.8-21.7,33.8-31.1"/>
		</g>
		<defs>
			<filter id="Adobe_OpacityMaskFilter_4_" filterUnits="userSpaceOnUse" x="-1.2" y="-31.6" width="31.5" height="19.8">
				<feColorMatrix  type="matrix" values="1 0 0 0 0  0 1 0 0 0  0 0 1 0 0  0 0 0 1 0"/>
			</filter>
		</defs>
		<mask maskUnits="userSpaceOnUse" x="-1.2" y="-31.6" width="31.5" height="19.8" id="mask-13_1_">
			<g class="st28">
				<path id="path-12_1_" class="st2" d="M33.8-31.1c0-9.3-7.6-16.9-16.9-16.9S0-40.4,0-31.1s7.6,16.9,16.9,16.9
					S33.8-21.7,33.8-31.1"/>
			</g>
		</mask>
		<path id="Path-4" class="st29" d="M0.8-28.4c2.6-3.2,5.3-4.1,8.3-2.5c4.5,2.3,4.6,4.3,7,7.1s6.1,5.2,9.3,5c2.2-0.1,3.8-0.1,4.8,0
			c-3.9,4.3-6.1,6.4-6.7,6.4c-0.9,0-17.6,1-18.1,0.3C5.3-12.5,3-16.4-1.2-23.8L0.8-28.4z"/>
	</g>
	<path id="Fill-3" class="st30" d="M24.4-19.6c-0.4,0.6-1,2.6-0.9,4.1c3.1-1.3,5.7-3.5,7.5-6.3c-0.6-0.2-1.2-0.4-2.1-0.4
		C27.1-22.1,25.4-21.2,24.4-19.6z"/>
	<path id="Fill-72" class="st31" d="M18.2-24.5c0.4-0.2,0.9-0.6,0.7-1.2c0-0.1-0.2-0.1-0.2-0.1c-0.1,0.1-0.2,0.2-0.3,0.3
		c0-0.3,0-0.5-0.1-0.8c0-0.2-0.3-0.1-0.3,0c-0.2,0.5-0.2,0.9-0.2,1.4C17.7-24.5,18-24.4,18.2-24.5"/>
	<path id="Fill-74" class="st31" d="M14.7-42.3c-1.1,1.4,0.2,2.6,0.2,4.1c0,0.6,0.6,1.1,1.2,0.9c0.4-0.2,0.8-0.3,1.1-0.7
		c0.1-0.1,1.1-1.5,1.1-1.1c0.1,0.6,0.9,0.8,1.3,0.3c0.3-0.4,0.7-0.7,1.1-0.9c0.4-0.2,1-0.3,1.4-0.5c0.4-0.2,0.6-0.5,0.7-1
		c0-0.6-0.4-1-0.9-1.3c-0.1-0.1-0.3-0.1-0.4-0.2c0,0,0,0,0,0c-0.2-0.1-0.4-0.1-0.5-0.1c-0.3-0.1-0.5-0.2-0.7-0.4
		c-0.1-0.2-0.2-0.4-0.2-0.7c0-0.2-0.1-0.4-0.3-0.5c0,0,0,0,0-0.1c-0.4-0.3-1.1-0.5-1.6-0.5c-0.5,0-0.8,0.3-1.1,0.6
		c-0.1,0.1-0.2,0.3-0.3,0.4C15.9-43.4,15.2-42.9,14.7-42.3"/>
	<path id="Fill-76" class="st31" d="M20.1-24.1c0,0,0,0.1,0.1,0.1c0.1,0.1,0.3,0.1,0.4,0c0,0,0-0.1,0.1-0.1
		C20.9-24.6,19.8-24.6,20.1-24.1"/>
	<path id="Fill-78" class="st31" d="M19.4-24.4c0.1-0.5,0-0.8-0.1-1.3c0-0.1-0.2-0.1-0.2,0c0,0.4-0.2,0.7-0.2,1.1
		C18.8-24.2,19.4-24.1,19.4-24.4"/>
	<path id="Fill-80" class="st31" d="M17.7-29.8l-0.2-0.1c-0.4-0.1-0.4,0.7,0,0.5l0.2-0.1C17.9-29.5,17.9-29.8,17.7-29.8"/>
	<path id="Fill-82" class="st31" d="M30.1-23.6c0.6-1.1,0.3-2.3,0.5-3.5c0.3-1.7,1.9-2.4,2.8-3.7c0.2-0.3-0.2-0.5-0.4-0.4
		c-1.1,0.5-2.5,1.9-2.9,3c-0.5,1.4,0.1,3-0.4,4.4C29.7-23.6,30-23.4,30.1-23.6"/>
	<path id="Fill-84" class="st31" d="M19.5-29.4c-0.1,0-0.2,0-0.2-0.1c-0.5-0.1-0.5,0.7,0,0.6c0.1,0,0.2,0,0.2-0.1
		C19.7-28.9,19.7-29.3,19.5-29.4"/>
	<path id="Fill-86" class="st31" d="M27.2-44c-0.4,0-0.8,0.1-0.9,0.6c-0.1,0.5,0.3,1.1,0.6,1.4c0.6,0.6,1.4,0.6,2,1
		c0.7,0.5,1.3,1.1,2.1,1.4c0.2,0,0.3,0.1,0.4,0.1c-1-1.7-2.2-3.2-3.7-4.4c-0.1,0-0.1,0-0.2-0.1C27.5-44,27.3-44,27.2-44"/>
	<path id="Fill-88" class="st31" d="M23-19.6c0,0.3,0.5,0.3,0.5,0c0.1-0.7-0.2-1.7-1-1.7c-0.2,0-0.2,0.2-0.1,0.3
		c0.4,0.2,0.5,0.3,0.6,0.9C23-20,23-19.8,23-19.6"/>
	<path id="Fill-90" class="st31" d="M22.7-17.4c0.4,0,0.4-0.6,0-0.6S22.3-17.4,22.7-17.4"/>
	<path id="Fill-92" class="st31" d="M22.9-23.8c0.1,0,0.1-0.1,0.1-0.1c0-0.1,0-0.1-0.1-0.2c-0.1-0.1-0.1-0.2-0.3-0.2
		c-1.1-0.1-1,1.2-1.1,1.9c0,0.1,0.1,0.3,0.2,0.3c0.4,0.2,0.7,0.2,1.1,0c0.1,0,0.2-0.2,0-0.3c-0.2-0.1-0.4-0.2-0.6-0.3
		C22.3-23.2,22.3-23.9,22.9-23.8"/>
	<path id="Fill-94" class="st32" d="M16.3-24.5c0.5-0.4,1.1-0.8,1.4-1.4c0.2-0.4-0.3-0.8-0.6-0.5c-0.1,0.1-1.1,1.2-1.5,1.4
		c0.1-0.8-0.3-1.6-0.7-2.2c-0.1-0.2-0.4-0.2-0.5,0c-0.3,0.7-0.8,1.3-0.8,2.1c-0.5-0.7-1.3-1.1-2.3-1c-0.7,0.1-1.5,0.1-1.9,0.8
		c-0.1,0.2-0.1,0.3-0.1,0.5c-0.4-0.2-0.8-0.3-1.2-0.3c-0.3,0-0.6,0.3-0.6,0.6c0,0.1,0,0.1,0,0.2c-0.1,0.1-0.3,0.2-0.3,0.4
		c0,0.2,0,0.4,0.1,0.6c0,0,0.4,0.6,0.4,0.4c-0.1,0.8,0.8,1.5,1.5,0.8c0.2-0.2,0.3-0.6,0.2-0.9c0-0.2,0-0.4-0.2-0.6
		c-0.1-0.1-0.2-0.1-0.2-0.2c0.3,0.1,0.6,0.2,0.9,0.3c0,0,0,0.1,0.1,0.1c0.6,0.9,1.5,1.6,2.3,2.4c0.7,0.7,1.3,1.5,1.9,2.3
		c0.1,0.1,0.3,0,0.3-0.1c-0.1-0.6-0.3-1.1-0.6-1.5c0,0,0.1-0.1,0.1-0.1c0.3-0.3,0.7-0.1,0.9-0.7c0.1-0.5-0.1-1.3-0.2-1.9
		c0-0.2-0.1-0.5-0.1-0.7c0.1,0,0.2,0.1,0.3,0.1C15.4-23.8,15.8-24.1,16.3-24.5"/>
	<path id="Fill-96" class="st32" d="M10.4-16.6c0,0.3,0.5,0.6,0.7,0.2c0.1-0.2,0.2-0.4,0.2-0.6c0.2-0.2,0.4-0.5,0.3-0.7
		c0-0.1-0.1-0.1-0.1-0.2c-0.1-0.4-0.6-0.6-0.9-0.2c0,0.1-0.1,0.1-0.1,0.2c-0.2,0.2-0.3,0.6-0.1,0.8C10.4-17.1,10.4-16.7,10.4-16.6"
		/>
	<path id="Fill-98" class="st32" d="M9.8-21.4c-0.2,0-0.4,0.2-0.4,0.4c0,0.3,0.2,0.5,0.3,0.8c0.1,0.3,0.1,0.5,0.2,0.8
		c0.5,0.9,1.9,0.1,1.4-0.8C11.1-20.7,10.4-21.3,9.8-21.4"/>
	<path id="Fill-100" class="st31" d="M15.9-29.2c0,0-0.1,0-0.1,0c-0.1,0-0.3,0.1-0.4,0.2c-0.1,0.3-0.2,0.6-0.1,0.9
		c0.1,0.4,0.7,0.4,0.8,0c0.1-0.3,0.3-0.6,0.1-0.9C16.2-29.1,16.1-29.2,15.9-29.2"/>
	<path id="Fill-102" class="st31" d="M33.7-29.6c-0.6,1-1.5,1.6-1.9,2.7c-0.3,1.1-0.3,2.2,0,3.3c0,0.1,0.1,0.2,0.1,0.2
		C32.9-25.2,33.5-27.4,33.7-29.6C33.7-29.6,33.7-29.6,33.7-29.6"/>
	<path id="Fill-104" class="st32" d="M31.6-22.8c-0.5,0.3-1,0.5-1.2,0.6c-0.7,0.4-1.4,0.7-2,1.1c-1.1,0.8-0.8,2.1-1.1,3.3
		C29-19.1,30.5-20.9,31.6-22.8"/>
	<path id="Fill-106" class="st31" d="M5.2-38.3c0.3-0.1,0.4-0.2,0.7,0.1C6-38.1,6.1-38,6.3-37.9c0.5,0.1,0.7-0.6,0.2-0.8
		c0.1,0.1-0.2-0.3-0.3-0.4c-0.2-0.1-0.4-0.2-0.7-0.2c-0.4,0-0.8,0.3-0.7,0.8C4.9-38.3,5-38.3,5.2-38.3"/>
	<path id="Fill-108" class="st31" d="M13.8-39.1c0.1-0.2-0.1-0.5-0.3-0.6c0,0-0.1,0-0.1,0c-0.2-0.2-0.4-0.4-0.6-0.4
		c-0.8-0.1-1.4,0.5-1.3,1.3c0.1,0.4,0.2,0.6,0.6,0.8c0.1,0.1,0.3,0.1,0.5,0c0.2,0.1,0.4,0.2,0.7,0.1c0,0,0.1,0,0.1,0
		c0.2-0.1,0.4-0.3,0.5-0.5c0,0,0,0,0,0c0,0,0,0,0-0.1c0,0,0-0.1,0-0.1c0,0,0-0.1,0-0.1C13.7-38.9,13.8-39,13.8-39.1
		C13.8-39.1,13.8-39.1,13.8-39.1"/>
	<path id="Fill-110" class="st31" d="M11-27.6c0.7,0,0.7-1.1,0-1.1S10.3-27.6,11-27.6"/>
	<path id="Fill-112" class="st31" d="M10.5-36c-0.1-0.2-0.2-0.3-0.3-0.3c0,0,0,0-0.1,0c-0.2-0.1-0.5-0.1-0.7-0.1
		c-0.1-0.1-0.2-0.3-0.2-0.4c-0.1-0.3-0.4-0.3-0.6-0.2c-0.6,0.5-0.9,1.2-0.9,2c0,0.2,0.1,0.2,0.2,0.3c0.2,0.4,1,0.5,1.2-0.1
		C9.4-35.3,10.7-35.4,10.5-36"/>
	<path id="Fill-114" class="st31" d="M9.3-30.8c0,0.1-0.1,0.1-0.1,0.2c-0.1,0.2,0,0.5,0.2,0.6c0,0,0.1,0,0.1,0.1c0.1,0,0.2,0,0.2,0
		c0,0,0.1,0,0.1-0.1c0.2-0.1,0.3-0.4,0.2-0.6c0-0.1-0.1-0.1-0.1-0.2C9.8-31,9.4-31,9.3-30.8"/>
	<path id="Fill-116" class="st31" d="M8.1-38.5c-0.5,0-0.5,0.7,0,0.7C8.6-37.7,8.6-38.5,8.1-38.5"/>
	<g id="Group-120" transform="translate(26.037037, 18.728441)">
		<g id="Clip-119">
		</g>
		<defs>
			<filter id="Adobe_OpacityMaskFilter_5_" filterUnits="userSpaceOnUse" x="0.7" y="-47.2" width="10" height="10">
				<feColorMatrix  type="matrix" values="1 0 0 0 0  0 1 0 0 0  0 0 1 0 0  0 0 0 1 0"/>
			</filter>
		</defs>
		<mask maskUnits="userSpaceOnUse" x="0.7" y="-47.2" width="10" height="10" id="mask-15_1_">
			<g class="st33">
				<polygon id="path-14_1_" class="st2" points="0.7,-47.2 10.7,-47.2 10.7,-37.3 0.7,-37.3 				"/>
			</g>
		</mask>
		<path id="Fill-118" class="st34" d="M10.7-42.3c0-2.8-2.2-5-5-5s-5,2.2-5,5c0,2.8,2.2,5,5,5S10.7-39.5,10.7-42.3"/>
	</g>
	<path id="Fill-121" class="st35" d="M33.7-20.7c-0.7-0.9-1.1-2.1-1.9-2.9c-1.6-1.4-3.8-1-4.9,0.6c0.3,2.5,2.4,4.4,4.9,4.4
		c1.2,0,2.3-0.5,3.2-1.2C34.5-20,34-20.3,33.7-20.7"/>
</g>
</svg>
